<mxfile host="app.diagrams.net" modified="2024-03-04T22:39:18.111Z" agent="Mozilla/5.0 (Windows NT 10.0; Win64; x64) AppleWebKit/537.36 (KHTML, like Gecko) Chrome/121.0.0.0 Safari/537.36 OPR/107.0.0.0" etag="teEPbE7rRBIASZxnYqdP" version="24.0.1" type="github">
  <diagram name="Page-1" id="wPXygGE5rqjU_tCVDHRR">
    <mxGraphModel dx="1032" dy="619" grid="1" gridSize="10" guides="1" tooltips="1" connect="1" arrows="1" fold="1" page="1" pageScale="1" pageWidth="850" pageHeight="1100" math="0" shadow="0">
      <root>
        <mxCell id="0" />
        <mxCell id="1" parent="0" />
        <mxCell id="PHM4iHPDzlNtLT7zAB1Z-3" value="" style="edgeStyle=orthogonalEdgeStyle;rounded=0;orthogonalLoop=1;jettySize=auto;html=1;entryX=0.5;entryY=0;entryDx=0;entryDy=0;" edge="1" parent="1" source="PHM4iHPDzlNtLT7zAB1Z-1" target="PHM4iHPDzlNtLT7zAB1Z-6">
          <mxGeometry relative="1" as="geometry" />
        </mxCell>
        <mxCell id="PHM4iHPDzlNtLT7zAB1Z-1" value="Inicio" style="ellipse;whiteSpace=wrap;html=1;" vertex="1" parent="1">
          <mxGeometry x="355" y="260" width="120" height="80" as="geometry" />
        </mxCell>
        <mxCell id="PHM4iHPDzlNtLT7zAB1Z-5" value="" style="edgeStyle=orthogonalEdgeStyle;rounded=0;orthogonalLoop=1;jettySize=auto;html=1;" edge="1" parent="1" source="PHM4iHPDzlNtLT7zAB1Z-2" target="PHM4iHPDzlNtLT7zAB1Z-4">
          <mxGeometry relative="1" as="geometry" />
        </mxCell>
        <mxCell id="PHM4iHPDzlNtLT7zAB1Z-2" value="Ler, C1, C2, C3" style="shape=card;whiteSpace=wrap;html=1;" vertex="1" parent="1">
          <mxGeometry x="350" y="460" width="130" height="60" as="geometry" />
        </mxCell>
        <mxCell id="PHM4iHPDzlNtLT7zAB1Z-9" value="" style="edgeStyle=orthogonalEdgeStyle;rounded=0;orthogonalLoop=1;jettySize=auto;html=1;" edge="1" parent="1" source="PHM4iHPDzlNtLT7zAB1Z-4" target="PHM4iHPDzlNtLT7zAB1Z-8">
          <mxGeometry relative="1" as="geometry" />
        </mxCell>
        <mxCell id="PHM4iHPDzlNtLT7zAB1Z-4" value="MP = (C1 + C2 + C3)/3" style="rounded=1;whiteSpace=wrap;html=1;" vertex="1" parent="1">
          <mxGeometry x="351" y="560" width="128" height="60" as="geometry" />
        </mxCell>
        <mxCell id="PHM4iHPDzlNtLT7zAB1Z-7" value="" style="edgeStyle=orthogonalEdgeStyle;rounded=0;orthogonalLoop=1;jettySize=auto;html=1;" edge="1" parent="1" source="PHM4iHPDzlNtLT7zAB1Z-6" target="PHM4iHPDzlNtLT7zAB1Z-2">
          <mxGeometry relative="1" as="geometry" />
        </mxCell>
        <mxCell id="PHM4iHPDzlNtLT7zAB1Z-6" value="MP" style="shape=parallelogram;perimeter=parallelogramPerimeter;whiteSpace=wrap;html=1;fixedSize=1;" vertex="1" parent="1">
          <mxGeometry x="355" y="370" width="120" height="60" as="geometry" />
        </mxCell>
        <mxCell id="PHM4iHPDzlNtLT7zAB1Z-8" value="Fim" style="ellipse;whiteSpace=wrap;html=1;" vertex="1" parent="1">
          <mxGeometry x="355" y="651" width="120" height="80" as="geometry" />
        </mxCell>
      </root>
    </mxGraphModel>
  </diagram>
</mxfile>
